<?xml version="1.0" encoding="utf-8"?>
<!-- Generator: Adobe Illustrator 28.0.0, SVG Export Plug-In . SVG Version: 6.00 Build 0)  -->
<svg version="1.1" id="Layer_1" xmlns="http://www.w3.org/2000/svg" xmlns:xlink="http://www.w3.org/1999/xlink" x="0px" y="0px"
	 viewBox="0 0 202.7 207.3" style="enable-background:new 0 0 202.7 207.3;" xml:space="preserve">
<style type="text/css">
	.st0{fill:#FFFFFF;}
	.st1{font-family:'ArialMT';}
	.st2{font-size:93.7178px;}
	.st3{fill:none;stroke:#FFFFFF;stroke-width:7;stroke-miterlimit:10;}
	.st4{fill:none;stroke:#FFFFFF;stroke-width:9;stroke-miterlimit:10;}
</style>
<text transform="matrix(1 0 0 1 117.4862 140.076)" class="st0 st1 st2">+</text>
<path class="st0" d="M114.6,106.4c0,0-26.1-9.5-47.5,6.9c0,0-18.4,12.1-13.6,39.3c0,0,2.5,4.4,6.9,6h81.3c0,0,8.5-0.8,8.2-8.7
	c0,0,0.5-3.3-5.9-3.4c0,0,1,3.7-2.5,5.6H62.8c0,0-3.1,0.1-3.5-5.6c0,0-4.2-41.1,53.2-37.4L114.6,106.4z"/>
<circle class="st3" cx="101.4" cy="76.6" r="28.5"/>
<circle class="st4" cx="101.4" cy="103.6" r="91.4"/>
</svg>
