<?xml version="1.0" encoding="utf-8"?>
<!-- Generator: Adobe Illustrator 28.0.0, SVG Export Plug-In . SVG Version: 6.00 Build 0)  -->
<svg version="1.1" id="Layer_1" xmlns="http://www.w3.org/2000/svg" xmlns:xlink="http://www.w3.org/1999/xlink" x="0px" y="0px"
	 viewBox="0 0 202.7 207.3" style="enable-background:new 0 0 202.7 207.3;" xml:space="preserve">
<style type="text/css">
	.st0{fill:none;stroke:#FFFFFF;stroke-width:7;stroke-miterlimit:10;}
	.st1{fill:#FFFFFF;}
	.st2{fill:none;stroke:#FFFFFF;stroke-width:9;stroke-miterlimit:10;}
</style>
<circle class="st0" cx="102.1" cy="79.2" r="28.5"/>
<path class="st1" d="M118,106.9H85.9c0,0-36.5,8.3-33,45.6c0,0,0.7,6.8,8.9,8.7H143c0,0,8-1.7,9-10.6
	C151.9,150.6,155.2,117,118,106.9z M144.6,151.1c-1.2,3.3-3.8,4.2-3.8,4.2l-78.8-1c-2.6-0.7-2.4-3.8-2.4-3.8
	c-3.1-37.6,41-38.6,41-38.6C149.5,113,144.6,151.1,144.6,151.1z"/>
<circle class="st2" cx="102.3" cy="105.9" r="91.4"/>
</svg>
