<?xml version="1.0" encoding="utf-8"?>
<!-- Generator: Adobe Illustrator 28.0.0, SVG Export Plug-In . SVG Version: 6.00 Build 0)  -->
<svg version="1.1" id="Layer_1" xmlns="http://www.w3.org/2000/svg" xmlns:xlink="http://www.w3.org/1999/xlink" x="0px" y="0px"
	 viewBox="0 0 7.8 5" style="enable-background:new 0 0 7.8 5;" xml:space="preserve">
<style type="text/css">
	.st0{fill:#F95208;}
</style>
<path class="st0" d="M0.1,4.7c0,0.1,0.1,0.2,0.2,0.2H1c0.1,0,0.2-0.1,0.2-0.2V3.1c0-0.1,0-0.1,0.1-0.2H3c0.1,0,0.2-0.1,0.2-0.2V2.3
	c0-0.1-0.1-0.2-0.2-0.2H1.4c-0.2,0-0.2,0-0.2-0.1l0,0V1.2c0-0.1,0-0.2,0.1-0.2H5c0.1,0,0.2,0.1,0.2,0.2v3.5c0,0.1,0.1,0.2,0.2,0.2
	h0.7c0.1,0,0.2-0.1,0.2-0.2V1.2c0-0.1,0-0.2,0.1-0.2h1.1c0.1,0,0.2,0,0.2-0.1V0.4c0-0.1-0.1-0.2-0.2-0.2H0.3c-0.1,0-0.2,0.1-0.2,0.2
	l0,0C0.1,0.4,0.1,4.7,0.1,4.7z"/>
</svg>
